<svg xmlns="http://www.w3.org/2000/svg" viewBox="0 0 100 100"><defs><linearGradient id="a" x1="0%" x2="100%" y1="100%" y2="0%"><stop offset="0%" stop-color="#F5AF19"/><stop offset="100%" stop-color="#F12711"/></linearGradient><linearGradient id="b" x1="0%" x2="100%" y1="100%" y2="0%"><stop offset="0%" stop-color="#8E9EAB"/><stop offset="100%" stop-color="#eef2f3"/></linearGradient></defs><path fill="url(#a)" d="M40 60h40v8c-5 5-12 5-17 5v12c12 3 17 7 17 10H20c0-3 5-7 17-10V73c-12 0-22-5-27-10 8-5 20-3 30-3"/><g stroke="url(#b)" stroke-linecap="round" stroke-width="3"><path d="M50 60V40M50 40 25 25M50 40l25-15M25 25 15 40M25 25l15-15M75 25l10 15M75 25 60 10"/></g><g fill="url(#b)"><circle cx="50" cy="40" r="4.5"/><circle cx="25" cy="25" r="4.5"/><circle cx="75" cy="25" r="4.5"/><circle cx="15" cy="40" r="3.5"/><circle cx="40" cy="10" r="3.5"/><circle cx="85" cy="40" r="3.5"/><circle cx="60" cy="10" r="3.5"/></g></svg>